<mxfile host="app.diagrams.net" modified="2024-03-05T17:45:34.438Z" agent="Mozilla/5.0 (Windows NT 10.0; Win64; x64) AppleWebKit/537.36 (KHTML, like Gecko) Chrome/122.0.0.0 Safari/537.36" etag="-jQ1P3-Q6ARsWb_QC2zB" version="24.0.1" type="device">
  <diagram name="Página-1" id="QzJqbyFUxCJaINsDb2VK">
    <mxGraphModel dx="1674" dy="780" grid="1" gridSize="10" guides="1" tooltips="1" connect="1" arrows="1" fold="1" page="1" pageScale="1" pageWidth="827" pageHeight="1169" math="0" shadow="0">
      <root>
        <mxCell id="0" />
        <mxCell id="1" parent="0" />
        <mxCell id="9vfceQD6DULzC1WrJKth-1" value="Gerente" style="shape=umlActor;verticalLabelPosition=bottom;verticalAlign=top;html=1;outlineConnect=0;" vertex="1" parent="1">
          <mxGeometry x="220" y="220" width="30" height="60" as="geometry" />
        </mxCell>
        <mxCell id="9vfceQD6DULzC1WrJKth-6" value="Atualiza livros" style="ellipse;whiteSpace=wrap;html=1;" vertex="1" parent="1">
          <mxGeometry x="450" y="220" width="120" height="40" as="geometry" />
        </mxCell>
        <mxCell id="9vfceQD6DULzC1WrJKth-8" value="Atualiza Informação dos livros" style="ellipse;whiteSpace=wrap;html=1;" vertex="1" parent="1">
          <mxGeometry x="450" y="280" width="120" height="40" as="geometry" />
        </mxCell>
        <mxCell id="9vfceQD6DULzC1WrJKth-12" value="Remove livros do sistema" style="ellipse;whiteSpace=wrap;html=1;" vertex="1" parent="1">
          <mxGeometry x="450" y="160" width="120" height="40" as="geometry" />
        </mxCell>
        <mxCell id="9vfceQD6DULzC1WrJKth-14" value="Gerenciar sistema" style="ellipse;whiteSpace=wrap;html=1;" vertex="1" parent="1">
          <mxGeometry x="280" y="220" width="120" height="40" as="geometry" />
        </mxCell>
        <mxCell id="9vfceQD6DULzC1WrJKth-20" value="Consulta Livros" style="ellipse;whiteSpace=wrap;html=1;" vertex="1" parent="1">
          <mxGeometry x="440" y="340" width="120" height="40" as="geometry" />
        </mxCell>
        <mxCell id="9vfceQD6DULzC1WrJKth-44" value="Vendedor&lt;div&gt;&lt;br&gt;&lt;/div&gt;" style="shape=umlActor;verticalLabelPosition=bottom;verticalAlign=top;html=1;outlineConnect=0;" vertex="1" parent="1">
          <mxGeometry x="920" y="320" width="30" height="60" as="geometry" />
        </mxCell>
        <mxCell id="9vfceQD6DULzC1WrJKth-47" value="Cliente" style="shape=umlActor;verticalLabelPosition=bottom;verticalAlign=top;html=1;outlineConnect=0;" vertex="1" parent="1">
          <mxGeometry x="920" y="120" width="30" height="60" as="geometry" />
        </mxCell>
        <mxCell id="9vfceQD6DULzC1WrJKth-52" value="Registra venda de livros" style="ellipse;whiteSpace=wrap;html=1;" vertex="1" parent="1">
          <mxGeometry x="730" y="250" width="120" height="40" as="geometry" />
        </mxCell>
        <mxCell id="9vfceQD6DULzC1WrJKth-55" value="Cancela vendas de livros" style="ellipse;whiteSpace=wrap;html=1;" vertex="1" parent="1">
          <mxGeometry x="730" y="320" width="120" height="40" as="geometry" />
        </mxCell>
        <mxCell id="9vfceQD6DULzC1WrJKth-56" value="Consulta histórico de vendas" style="ellipse;whiteSpace=wrap;html=1;" vertex="1" parent="1">
          <mxGeometry x="730" y="420" width="120" height="40" as="geometry" />
        </mxCell>
        <mxCell id="9vfceQD6DULzC1WrJKth-66" value="" style="endArrow=block;endFill=0;endSize=12;html=1;rounded=0;exitX=1;exitY=1;exitDx=0;exitDy=0;entryX=0;entryY=0.5;entryDx=0;entryDy=0;edgeStyle=orthogonalEdgeStyle;" edge="1" parent="1" source="9vfceQD6DULzC1WrJKth-14" target="9vfceQD6DULzC1WrJKth-8">
          <mxGeometry width="160" relative="1" as="geometry">
            <mxPoint x="330" y="290" as="sourcePoint" />
            <mxPoint x="490" y="290" as="targetPoint" />
            <Array as="points">
              <mxPoint x="380" y="254" />
              <mxPoint x="380" y="300" />
            </Array>
          </mxGeometry>
        </mxCell>
        <mxCell id="9vfceQD6DULzC1WrJKth-67" value="" style="endArrow=block;endFill=0;endSize=12;html=1;rounded=0;exitX=0.5;exitY=1;exitDx=0;exitDy=0;entryX=0;entryY=0.5;entryDx=0;entryDy=0;edgeStyle=orthogonalEdgeStyle;" edge="1" parent="1" source="9vfceQD6DULzC1WrJKth-14" target="9vfceQD6DULzC1WrJKth-20">
          <mxGeometry width="160" relative="1" as="geometry">
            <mxPoint x="360" y="290" as="sourcePoint" />
            <mxPoint x="520" y="290" as="targetPoint" />
          </mxGeometry>
        </mxCell>
        <mxCell id="9vfceQD6DULzC1WrJKth-68" value="" style="endArrow=block;endFill=0;endSize=12;html=1;rounded=0;exitX=1;exitY=0.5;exitDx=0;exitDy=0;entryX=0;entryY=0.5;entryDx=0;entryDy=0;" edge="1" parent="1" source="9vfceQD6DULzC1WrJKth-14" target="9vfceQD6DULzC1WrJKth-6">
          <mxGeometry width="160" relative="1" as="geometry">
            <mxPoint x="410" y="220" as="sourcePoint" />
            <mxPoint x="570" y="220" as="targetPoint" />
          </mxGeometry>
        </mxCell>
        <mxCell id="9vfceQD6DULzC1WrJKth-72" value="" style="endArrow=block;endFill=0;endSize=12;html=1;rounded=0;exitX=0.5;exitY=0;exitDx=0;exitDy=0;entryX=0;entryY=0.5;entryDx=0;entryDy=0;edgeStyle=orthogonalEdgeStyle;" edge="1" parent="1" source="9vfceQD6DULzC1WrJKth-14" target="9vfceQD6DULzC1WrJKth-12">
          <mxGeometry width="160" relative="1" as="geometry">
            <mxPoint x="330" y="190" as="sourcePoint" />
            <mxPoint x="490" y="190" as="targetPoint" />
          </mxGeometry>
        </mxCell>
        <mxCell id="9vfceQD6DULzC1WrJKth-74" value="Consulta livros" style="ellipse;whiteSpace=wrap;html=1;" vertex="1" parent="1">
          <mxGeometry x="720" y="110" width="120" height="40" as="geometry" />
        </mxCell>
        <mxCell id="9vfceQD6DULzC1WrJKth-76" value="Consulta histórico de compras" style="ellipse;whiteSpace=wrap;html=1;" vertex="1" parent="1">
          <mxGeometry x="730" y="180" width="120" height="40" as="geometry" />
        </mxCell>
        <mxCell id="9vfceQD6DULzC1WrJKth-97" value="cadastra cliente" style="ellipse;whiteSpace=wrap;html=1;" vertex="1" parent="1">
          <mxGeometry x="450" y="100" width="120" height="40" as="geometry" />
        </mxCell>
        <mxCell id="9vfceQD6DULzC1WrJKth-99" value="" style="endArrow=block;endFill=0;endSize=12;html=1;rounded=0;exitX=0;exitY=0;exitDx=0;exitDy=0;entryX=0;entryY=0.5;entryDx=0;entryDy=0;edgeStyle=orthogonalEdgeStyle;" edge="1" parent="1" source="9vfceQD6DULzC1WrJKth-14" target="9vfceQD6DULzC1WrJKth-97">
          <mxGeometry width="160" relative="1" as="geometry">
            <mxPoint x="350" y="230" as="sourcePoint" />
            <mxPoint x="460" y="190" as="targetPoint" />
            <Array as="points">
              <mxPoint x="298" y="120" />
            </Array>
          </mxGeometry>
        </mxCell>
        <mxCell id="9vfceQD6DULzC1WrJKth-103" value="" style="endArrow=block;endFill=0;endSize=12;html=1;rounded=0;exitX=1;exitY=1;exitDx=0;exitDy=0;exitPerimeter=0;entryX=0;entryY=0.5;entryDx=0;entryDy=0;edgeStyle=orthogonalEdgeStyle;elbow=vertical;" edge="1" parent="1" source="9vfceQD6DULzC1WrJKth-1" target="9vfceQD6DULzC1WrJKth-52">
          <mxGeometry width="160" relative="1" as="geometry">
            <mxPoint x="280" y="360" as="sourcePoint" />
            <mxPoint x="620" y="490" as="targetPoint" />
            <Array as="points">
              <mxPoint x="310" y="280" />
              <mxPoint x="310" y="470" />
              <mxPoint x="690" y="470" />
              <mxPoint x="690" y="270" />
            </Array>
          </mxGeometry>
        </mxCell>
        <mxCell id="9vfceQD6DULzC1WrJKth-106" value="" style="endArrow=block;endFill=0;endSize=12;html=1;rounded=0;entryX=1;entryY=0.5;entryDx=0;entryDy=0;exitX=0;exitY=1;exitDx=0;exitDy=0;exitPerimeter=0;edgeStyle=orthogonalEdgeStyle;" edge="1" parent="1" source="9vfceQD6DULzC1WrJKth-44" target="9vfceQD6DULzC1WrJKth-56">
          <mxGeometry width="160" relative="1" as="geometry">
            <mxPoint x="890" y="390" as="sourcePoint" />
            <mxPoint x="460" y="310" as="targetPoint" />
          </mxGeometry>
        </mxCell>
        <mxCell id="9vfceQD6DULzC1WrJKth-107" value="" style="endArrow=block;endFill=0;endSize=12;html=1;rounded=0;exitX=0;exitY=0.3333333333333333;exitDx=0;exitDy=0;entryX=1;entryY=0.5;entryDx=0;entryDy=0;exitPerimeter=0;" edge="1" parent="1" source="9vfceQD6DULzC1WrJKth-44" target="9vfceQD6DULzC1WrJKth-55">
          <mxGeometry width="160" relative="1" as="geometry">
            <mxPoint x="402" y="274" as="sourcePoint" />
            <mxPoint x="470" y="320" as="targetPoint" />
          </mxGeometry>
        </mxCell>
        <mxCell id="9vfceQD6DULzC1WrJKth-108" value="" style="endArrow=block;endFill=0;endSize=12;html=1;rounded=0;exitX=0.25;exitY=0.1;exitDx=0;exitDy=0;entryX=1;entryY=0.5;entryDx=0;entryDy=0;exitPerimeter=0;edgeStyle=orthogonalEdgeStyle;" edge="1" parent="1" source="9vfceQD6DULzC1WrJKth-44" target="9vfceQD6DULzC1WrJKth-52">
          <mxGeometry width="160" relative="1" as="geometry">
            <mxPoint x="412" y="284" as="sourcePoint" />
            <mxPoint x="480" y="330" as="targetPoint" />
          </mxGeometry>
        </mxCell>
        <mxCell id="9vfceQD6DULzC1WrJKth-109" value="" style="endArrow=block;endFill=0;endSize=12;html=1;rounded=0;exitX=0;exitY=0.3333333333333333;exitDx=0;exitDy=0;entryX=1;entryY=0.5;entryDx=0;entryDy=0;exitPerimeter=0;edgeStyle=orthogonalEdgeStyle;" edge="1" parent="1" source="9vfceQD6DULzC1WrJKth-47" target="9vfceQD6DULzC1WrJKth-76">
          <mxGeometry width="160" relative="1" as="geometry">
            <mxPoint x="422" y="294" as="sourcePoint" />
            <mxPoint x="490" y="340" as="targetPoint" />
            <Array as="points">
              <mxPoint x="910" y="140" />
              <mxPoint x="910" y="200" />
            </Array>
          </mxGeometry>
        </mxCell>
        <mxCell id="9vfceQD6DULzC1WrJKth-110" value="" style="endArrow=block;endFill=0;endSize=12;html=1;rounded=0;exitX=0.25;exitY=0.1;exitDx=0;exitDy=0;entryX=1;entryY=0.5;entryDx=0;entryDy=0;exitPerimeter=0;edgeStyle=orthogonalEdgeStyle;" edge="1" parent="1" source="9vfceQD6DULzC1WrJKth-47" target="9vfceQD6DULzC1WrJKth-74">
          <mxGeometry width="160" relative="1" as="geometry">
            <mxPoint x="432" y="304" as="sourcePoint" />
            <mxPoint x="500" y="350" as="targetPoint" />
          </mxGeometry>
        </mxCell>
        <mxCell id="9vfceQD6DULzC1WrJKth-112" value="Gerencia clientes" style="ellipse;whiteSpace=wrap;html=1;" vertex="1" parent="1">
          <mxGeometry x="450" y="44.14" width="120" height="40" as="geometry" />
        </mxCell>
        <mxCell id="9vfceQD6DULzC1WrJKth-113" value="" style="endArrow=block;endFill=0;endSize=12;html=1;rounded=0;exitX=0;exitY=0;exitDx=0;exitDy=0;entryX=0;entryY=0.5;entryDx=0;entryDy=0;" edge="1" parent="1" target="9vfceQD6DULzC1WrJKth-112" source="9vfceQD6DULzC1WrJKth-14">
          <mxGeometry width="160" relative="1" as="geometry">
            <mxPoint x="230.00359312880727" y="159.99786437626915" as="sourcePoint" />
            <mxPoint x="402.43" y="134.14" as="targetPoint" />
            <Array as="points">
              <mxPoint x="298" y="64" />
            </Array>
          </mxGeometry>
        </mxCell>
        <mxCell id="9vfceQD6DULzC1WrJKth-114" value="" style="endArrow=block;endFill=0;endSize=12;html=1;rounded=0;exitX=1;exitY=1;exitDx=0;exitDy=0;exitPerimeter=0;entryX=0;entryY=0.5;entryDx=0;entryDy=0;edgeStyle=orthogonalEdgeStyle;elbow=vertical;" edge="1" parent="1" source="9vfceQD6DULzC1WrJKth-1" target="9vfceQD6DULzC1WrJKth-55">
          <mxGeometry width="160" relative="1" as="geometry">
            <mxPoint x="260" y="290" as="sourcePoint" />
            <mxPoint x="740" y="280" as="targetPoint" />
            <Array as="points">
              <mxPoint x="310" y="280" />
              <mxPoint x="310" y="470" />
              <mxPoint x="690" y="470" />
              <mxPoint x="690" y="340" />
            </Array>
          </mxGeometry>
        </mxCell>
        <mxCell id="9vfceQD6DULzC1WrJKth-115" value="" style="endArrow=block;endFill=0;endSize=12;html=1;rounded=0;exitX=1;exitY=1;exitDx=0;exitDy=0;exitPerimeter=0;entryX=0;entryY=0.5;entryDx=0;entryDy=0;edgeStyle=orthogonalEdgeStyle;elbow=vertical;" edge="1" parent="1" source="9vfceQD6DULzC1WrJKth-1" target="9vfceQD6DULzC1WrJKth-56">
          <mxGeometry width="160" relative="1" as="geometry">
            <mxPoint x="270" y="300" as="sourcePoint" />
            <mxPoint x="750" y="290" as="targetPoint" />
            <Array as="points">
              <mxPoint x="310" y="280" />
              <mxPoint x="310" y="470" />
              <mxPoint x="690" y="470" />
              <mxPoint x="690" y="440" />
            </Array>
          </mxGeometry>
        </mxCell>
        <mxCell id="9vfceQD6DULzC1WrJKth-116" value="" style="endArrow=block;endFill=0;endSize=12;html=1;rounded=0;exitX=1;exitY=0.3333333333333333;exitDx=0;exitDy=0;exitPerimeter=0;" edge="1" parent="1" source="9vfceQD6DULzC1WrJKth-1">
          <mxGeometry width="160" relative="1" as="geometry">
            <mxPoint x="410" y="250" as="sourcePoint" />
            <mxPoint x="280" y="240" as="targetPoint" />
          </mxGeometry>
        </mxCell>
      </root>
    </mxGraphModel>
  </diagram>
</mxfile>
